<svg xmlns="http://www.w3.org/2000/svg" xmlns:xlink="http://www.w3.org/1999/xlink" width="500" zoomAndPan="magnify" viewBox="0 0 375 374.999991" height="500" preserveAspectRatio="xMidYMid meet" version="1.0"><defs><g/></defs><g fill="#000000" fill-opacity="1"><g transform="translate(-12.210792, 364.828955)"><g><path d="M 384.609375 -20.625 C 374.296875 -10.3125 362.953125 -3.09375 350.578125 1.03125 C 338.203125 5.15625 323.769531 7.21875 307.28125 7.21875 C 283.5625 7.21875 265.171875 3.007812 252.109375 -5.40625 C 239.046875 -13.832031 230.96875 -28.1875 227.875 -48.46875 L 220.140625 -100.015625 C 216.703125 -124.078125 211.972656 -142.296875 205.953125 -154.671875 C 199.941406 -167.046875 190.925781 -173.234375 178.90625 -173.234375 L 155.703125 -173.234375 L 155.703125 -54.65625 C 155.703125 -41.59375 156.644531 -32.140625 158.53125 -26.296875 C 160.425781 -20.453125 163.78125 -16.5 168.59375 -14.4375 C 173.40625 -12.375 181.3125 -11 192.3125 -10.3125 L 192.3125 0 C 172.375 -1.03125 143.671875 -1.546875 106.203125 -1.546875 C 64.617188 -1.546875 34.03125 -1.03125 14.4375 0 L 14.4375 -10.3125 C 25.4375 -11 33.425781 -12.375 38.40625 -14.4375 C 43.394531 -16.5 46.75 -20.453125 48.46875 -26.296875 C 50.1875 -32.140625 51.046875 -41.59375 51.046875 -54.65625 L 51.046875 -310.375 C 51.046875 -323.425781 50.097656 -332.875 48.203125 -338.71875 C 46.316406 -344.5625 42.96875 -348.515625 38.15625 -350.578125 C 33.34375 -352.640625 25.4375 -354.015625 14.4375 -354.703125 L 14.4375 -365.015625 C 34.03125 -363.984375 63.585938 -363.46875 103.109375 -363.46875 L 162.40625 -363.984375 C 169.28125 -364.328125 177.1875 -364.5 186.125 -364.5 C 238.363281 -364.5 277.285156 -357.109375 302.890625 -342.328125 C 328.492188 -327.554688 341.296875 -305.046875 341.296875 -274.796875 C 341.296875 -249.015625 331.671875 -227.015625 312.421875 -208.796875 C 293.179688 -190.585938 260.875 -179.421875 215.5 -175.296875 C 250.5625 -172.890625 277.03125 -166.269531 294.90625 -155.4375 C 312.78125 -144.613281 323.773438 -128.71875 327.890625 -107.75 L 338.71875 -54.140625 C 341.125 -41.421875 344.046875 -32.65625 347.484375 -27.84375 C 350.921875 -23.03125 355.734375 -20.625 361.921875 -20.625 C 368.109375 -20.625 373.4375 -22.859375 377.90625 -27.328125 Z M 183.546875 -354.703125 C 175.640625 -354.703125 169.707031 -353.5 165.75 -351.09375 C 161.800781 -348.6875 159.140625 -344.390625 157.765625 -338.203125 C 156.390625 -332.015625 155.703125 -322.738281 155.703125 -310.375 L 155.703125 -183.546875 L 169.625 -183.546875 C 194.019531 -183.546875 210.6875 -191.019531 219.625 -205.96875 C 228.5625 -220.914062 233.03125 -241.96875 233.03125 -269.125 C 233.03125 -297.3125 229.160156 -318.617188 221.421875 -333.046875 C 213.691406 -347.484375 201.066406 -354.703125 183.546875 -354.703125 Z M 183.546875 -354.703125 "/></g></g></g></svg>